<svg display="none" xmlns="http://www.w3.org/2000/svg">
  <symbol width="6" height="4" viewBox="0 0 6 4" id="arrow">
    <path d="M3 3.5375L0 0.5375L0.5375 0L3 2.475L5.4625 0.0124998L6 0.55L3 3.5375Z" fill="white" />
  </symbol>

  <symbol width="28" height="28" viewBox="0 0 28 28" id="play-icon">
    <g fill="none" stroke="none">
      <rect x="0.583333" y="0.583333" width="26.8333" height="26.8333" rx="13.4167" stroke="white"
        stroke-width="1.16667" fill="none" />
      <path
        d="M19.6875 13.2664C20.2708 13.5924 20.2708 14.4076 19.6875 14.7336L11.8125 19.1352C11.2292 19.4613 10.5 19.0537 10.5 18.4016L10.5 9.59836C10.5 8.94626 11.2292 8.53871 11.8125 8.86475L19.6875 13.2664Z"
        fill="white" />
    </g>
  </symbol>

  <symbol width="1097" height="721" viewBox="0 0 1097 721" id="bg-netting">
    <g clip-path="url(#clip0_9_155)">
      <path opacity="0.2" d="M-88.1929 0L1408.61 728.783" stroke="white" stroke-opacity="0.4" />
      <path opacity="0.2" d="M-176.241 42.8691L1320.57 771.652" stroke="white" stroke-opacity="0.4" />
      <path opacity="0.2" d="M-264.289 85.7393L1232.52 814.522" stroke="white" stroke-opacity="0.4" />
      <path opacity="0.2" d="M-352.336 128.608L1144.47 857.391" stroke="white" stroke-opacity="0.4" />
      <path opacity="0.2" d="M-440.383 171.479L1056.42 900.261" stroke="white" stroke-opacity="0.4" />
      <path opacity="0.2" d="M-528.43 214.348L968.377 943.13" stroke="white" stroke-opacity="0.4" />
      <path opacity="0.2" d="M-616.478 257.218L880.33 986.001" stroke="white" stroke-opacity="0.4" />
      <path opacity="0.2" d="M-704.526 300.087L792.281 1028.87" stroke="white" stroke-opacity="0.4" />
      <path opacity="0.2" d="M-792.574 342.957L704.234 1071.74" stroke="white" stroke-opacity="0.4" />
      <path opacity="0.2" d="M-880.62 385.826L616.187 1114.61" stroke="white" stroke-opacity="0.4" />
      <path opacity="0.2" d="M-968.668 428.695L528.139 1157.48" stroke="white" stroke-opacity="0.4" />
      <path opacity="0.2" d="M-1056.71 471.565L440.093 1200.35" stroke="white" stroke-opacity="0.4" />
      <path opacity="0.2" d="M-1144.76 514.435L352.045 1243.22" stroke="white" stroke-opacity="0.4" />
      <path opacity="0.2" d="M-1232.81 557.305L263.996 1286.09" stroke="white" stroke-opacity="0.4" />
      <path opacity="0.2" d="M-1320.86 600.174L175.949 1328.96" stroke="white" stroke-opacity="0.4" />
      <path opacity="0.2" d="M-1408.91 643.044L87.9019 1371.83" stroke="white" stroke-opacity="0.4" />
      <path opacity="0.2" d="M-1496.95 685.913L-0.145237 1414.7" stroke="white" stroke-opacity="0.4" />
      <path opacity="0.2" d="M87.9022 85.7393L-1408.91 814.522" stroke="white" stroke-opacity="0.4" />
      <path opacity="0.2" d="M175.949 128.608L-1320.86 857.391" stroke="white" stroke-opacity="0.4" />
      <path opacity="0.2" d="M263.997 171.479L-1232.81 900.261" stroke="white" stroke-opacity="0.4" />
      <path opacity="0.2" d="M352.045 214.348L-1144.76 943.13" stroke="white" stroke-opacity="0.4" />
      <path opacity="0.2" d="M440.092 257.218L-1056.72 986.001" stroke="white" stroke-opacity="0.4" />
      <path opacity="0.2" d="M528.139 300.087L-968.668 1028.87" stroke="white" stroke-opacity="0.4" />
      <path opacity="0.2" d="M616.187 342.957L-880.621 1071.74" stroke="white" stroke-opacity="0.4" />
      <path opacity="0.2" d="M704.217 385.826L-792.59 1114.61" stroke="white" stroke-opacity="0.4" />
      <path opacity="0.2" d="M792.265 428.695L-704.543 1157.48" stroke="white" stroke-opacity="0.4" />
      <path opacity="0.2" d="M880.312 471.565L-616.496 1200.35" stroke="white" stroke-opacity="0.4" />
      <path opacity="0.2" d="M968.359 514.435L-528.448 1243.22" stroke="white" stroke-opacity="0.4" />
      <path opacity="0.2" d="M1056.41 557.305L-440.401 1286.09" stroke="white" stroke-opacity="0.4" />
      <path opacity="0.2" d="M1144.45 600.174L-352.353 1328.96" stroke="white" stroke-opacity="0.4" />
      <path opacity="0.2" d="M1232.5 643.044L-264.306 1371.83" stroke="white" stroke-opacity="0.4" />
    </g>
    <defs>
      <clipPath id="clip0_9_155">
        <rect width="2682" height="721" fill="white" transform="translate(-1585)" />
      </clipPath>
    </defs>
  </symbol>

  <symbol width="100" height="100" viewBox="0 0 100 100" id="play-icon-second-type">
    <path fill-rule="evenodd" clip-rule="evenodd"
      d="M50 100C77.6142 100 100 77.6142 100 50C100 22.3858 77.6142 0 50 0C22.3858 0 0 22.3858 0 50C0 77.6142 22.3858 100 50 100ZM42.1875 68.3402L70.3125 52.62C72.3958 51.4556 72.3958 48.5444 70.3125 47.38L42.1875 31.6598C40.1042 30.4954 37.5 31.9509 37.5 34.2799V65.7201C37.5 68.049 40.1042 69.5046 42.1875 68.3402Z"
      fill="white" fill-opacity="0.3" />
  </symbol>

  <symbol width="16" height="16" viewBox="0 0 16 16" id="timeline-icon">
    <path
      d="M2.19995 2.86327C2.19995 1.61155 3.57248 0.844595 4.63851 1.50061L12.9856 6.63731C14.0009 7.26209 14.0009 8.73784 12.9856 9.36262L4.63851 14.4993C3.57247 15.1553 2.19995 14.3884 2.19995 13.1367V2.86327Z"
      fill="white" />
  </symbol>

  <symbol width="1247" height="1247" viewBox="0 0 1247 1247" id="bg-rounds">
    <circle cx="623.888" cy="622.888" r="281.815" stroke="white" stroke-opacity="0.17" fill="none" />
    <circle cx="625.112" cy="622.888" r="367.551" stroke="white" stroke-opacity="0.17" fill="none" />
    <circle cx="624.5" cy="623.5" r="449" stroke="white" stroke-opacity="0.17" fill="none" />
    <circle cx="624" cy="624" r="541.5" stroke="white" stroke-opacity="0.17" fill="none" />
    <circle cx="623.5" cy="623.5" r="623" stroke="white" stroke-opacity="0.17" fill="none" />
  </symbol>

  <symbol width="42" height="42" viewBox="0 0 42 42" id="pricing-card-icon">
    <circle cx="21" cy="21" r="20.25" fill="#18181B" stroke="url(#paint0_linear_43_1510)" stroke-width="1.5" />
    <path
      d="M13.375 22.8747C13.375 24.6236 14.7928 26.0413 16.5417 26.0413H23.6667C25.8528 26.0413 27.625 24.2691 27.625 22.083C27.625 19.8969 25.8528 18.1247 23.6667 18.1247C23.6403 18.1247 23.6139 18.1249 23.5876 18.1254C23.2212 16.3183 21.6236 14.958 19.7083 14.958C17.5222 14.958 15.75 16.7302 15.75 18.9163C15.75 19.2147 15.783 19.5053 15.8456 19.7848C14.4315 20.1019 13.375 21.3649 13.375 22.8747Z"
      stroke="#D4D4D8" stroke-width="1.5" stroke-linecap="round" stroke-linejoin="round" />
    <defs>
      <linearGradient id="paint0_linear_43_1510" x1="0" y1="21" x2="42" y2="21" gradientUnits="userSpaceOnUse">
        <stop stop-color="#0CBAF1" />
        <stop offset="1" stop-color="#E95CE9" />
      </linearGradient>
    </defs>
  </symbol>

  <symbol width="1055" height="541" viewBox="0 0 1055 541" id="bg-rounds2">
    <circle cx="528.823" cy="526.943" r="310.936" stroke="white" stroke-opacity="0.17" stroke-width="0.845966"
      fill="none" />
    <circle cx="528.305" cy="527.459" r="379.839" stroke="white" stroke-opacity="0.17" stroke-width="0.845966"
      fill="none" />
    <circle cx="527.882" cy="527.882" r="458.09" stroke="url(#paint0_linear_0_1)" stroke-width="0.845966" fill="none" />
    <circle cx="527.459" cy="527.459" r="527.036" stroke="white" stroke-opacity="0.17" stroke-width="0.845966"
      fill="none" />
    <defs>
      <linearGradient id="paint0_linear_0_1" x1="69.3691" y1="527.882" x2="986.396" y2="527.882"
        gradientUnits="userSpaceOnUse">
        <stop stop-color="#0CBAF1" />
        <stop offset="1" stop-color="#E95CE9" />
      </linearGradient>
    </defs>
  </symbol>

  <symbol width="79" height="20" viewBox="0 0 79 20" id="partner-logo1">
    <g clip-path="url(#clip0_43_1753)">
      <path
        d="M0.453735 14.8317L0.453737 4.94336L5.30419 7.69013V12.1124L9.18459 14.3373L13.0649 12.1124V7.69013L17.9154 4.94336V14.8317L9.18459 19.7759L0.453735 14.8317Z"
        fill="#D1D1D1" />
      <path fill-rule="evenodd" clip-rule="evenodd"
        d="M2.87897 6.31758L0.453735 4.94418L9.18459 0L17.9154 4.94418L15.4902 6.31758V13.5965L9.18459 17.3046L2.87897 13.5965L2.87897 6.31758ZM15.2275 6.46637L13.0649 7.69095V7.66347L9.18459 5.43858L5.30419 7.66347V7.69095L3.1417 6.46637V13.4444L9.18459 16.998L15.2275 13.4444V6.46637Z"
        fill="#D1D1D1" />
      <path d="M22.5641 14.0504V5.74414H24.1007V12.6264H27.8259V14.0504H22.5641Z" fill="#D1D1D1" />
      <path
        d="M31.1435 14.2178C30.5692 14.2178 30.0531 14.0992 29.5953 13.8618C29.1374 13.6245 28.7765 13.2804 28.5126 12.8295C28.2487 12.3786 28.1168 11.8367 28.1168 11.2038V11.0139C28.1168 10.3811 28.2487 9.83921 28.5126 9.38832C28.7765 8.93742 29.1374 8.59332 29.5953 8.356C30.0531 8.11863 30.5692 8 31.1435 8C31.7178 8 32.2339 8.11863 32.6918 8.356C33.1497 8.59332 33.5106 8.93742 33.7744 9.38832C34.0383 9.83921 34.1702 10.3811 34.1702 11.0139V11.2038C34.1702 11.8367 34.0383 12.3786 33.7744 12.8295C33.5106 13.2804 33.1497 13.6245 32.6918 13.8618C32.2339 14.0992 31.7178 14.2178 31.1435 14.2178ZM31.1435 12.8888C31.5936 12.8888 31.9662 12.7425 32.2611 12.4497C32.556 12.1492 32.7034 11.7219 32.7034 11.1682V11.0496C32.7034 10.4958 32.556 10.0726 32.2611 9.77989C31.9739 9.47932 31.6014 9.329 31.1435 9.329C30.6934 9.329 30.3209 9.47932 30.026 9.77989C29.7311 10.0726 29.5836 10.4958 29.5836 11.0496V11.1682C29.5836 11.7219 29.7311 12.1492 30.026 12.4497C30.3209 12.7425 30.6934 12.8888 31.1435 12.8888Z"
        fill="#D1D1D1" />
      <path
        d="M34.7209 11.1326V10.9428C34.7209 10.3257 34.8412 9.79968 35.0818 9.36458C35.3224 8.92158 35.6406 8.58537 36.0364 8.356C36.4399 8.11863 36.8784 8 37.3518 8C37.8796 8 38.2792 8.09495 38.5508 8.28479C38.8225 8.47463 39.0204 8.67242 39.1445 8.87811H39.3541V8.1661H40.7976V15.0959C40.7976 15.4993 40.6812 15.8197 40.4483 16.0571C40.2155 16.3023 39.9051 16.4249 39.5171 16.4249H35.6522V15.1196H39.0049C39.2221 15.1196 39.3308 15.0009 39.3308 14.7636V13.2329H39.1212C39.0436 13.3595 38.935 13.49 38.7953 13.6245C38.6556 13.7511 38.4694 13.8578 38.2366 13.9449C38.0037 14.0319 37.7088 14.0754 37.3518 14.0754C36.8784 14.0754 36.4399 13.9607 36.0364 13.7313C35.6406 13.4939 35.3224 13.1577 35.0818 12.7227C34.8412 12.2797 34.7209 11.7497 34.7209 11.1326ZM37.7709 12.7702C38.221 12.7702 38.5974 12.6238 38.9001 12.3311C39.2028 12.0384 39.3541 11.6271 39.3541 11.0971V10.9784C39.3541 10.4404 39.2028 10.0291 38.9001 9.74432C38.6052 9.45163 38.2288 9.30526 37.7709 9.30526C37.3208 9.30526 36.9444 9.45163 36.6417 9.74432C36.3391 10.0291 36.1877 10.4404 36.1877 10.9784V11.0971C36.1877 11.6271 36.3391 12.0384 36.6417 12.3311C36.9444 12.6238 37.3208 12.7702 37.7709 12.7702Z"
        fill="#D1D1D1" />
      <path
        d="M44.6473 14.2178C44.073 14.2178 43.5569 14.0992 43.099 13.8618C42.6411 13.6245 42.2802 13.2804 42.0164 12.8295C41.7525 12.3786 41.6206 11.8367 41.6206 11.2038V11.0139C41.6206 10.3811 41.7525 9.83921 42.0164 9.38832C42.2802 8.93742 42.6411 8.59332 43.099 8.356C43.5569 8.11863 44.073 8 44.6473 8C45.2216 8 45.7376 8.11863 46.1955 8.356C46.6534 8.59332 47.0143 8.93742 47.2781 9.38832C47.542 9.83921 47.674 10.3811 47.674 11.0139V11.2038C47.674 11.8367 47.542 12.3786 47.2781 12.8295C47.0143 13.2804 46.6534 13.6245 46.1955 13.8618C45.7376 14.0992 45.2216 14.2178 44.6473 14.2178ZM44.6473 12.8888C45.0974 12.8888 45.4699 12.7425 45.7648 12.4497C46.0597 12.1492 46.2072 11.7219 46.2072 11.1682V11.0496C46.2072 10.4958 46.0597 10.0726 45.7648 9.77989C45.4777 9.47932 45.1052 9.329 44.6473 9.329C44.1971 9.329 43.8247 9.47932 43.5297 9.77989C43.2348 10.0726 43.0874 10.4958 43.0874 11.0496V11.1682C43.0874 11.7219 43.2348 12.1492 43.5297 12.4497C43.8247 12.7425 44.1971 12.8888 44.6473 12.8888Z"
        fill="#D1D1D1" />
      <path
        d="M48.504 14.0505V8.16491H49.9707V14.0505H48.504ZM49.2373 7.4767C48.9735 7.4767 48.7484 7.3897 48.5622 7.21565C48.3837 7.0416 48.2944 6.81218 48.2944 6.52744C48.2944 6.24265 48.3837 6.01323 48.5622 5.83918C48.7484 5.66518 48.9735 5.57812 49.2373 5.57812C49.509 5.57812 49.734 5.66518 49.9125 5.83918C50.091 6.01323 50.1803 6.24265 50.1803 6.52744C50.1803 6.81218 50.091 7.0416 49.9125 7.21565C49.734 7.3897 49.509 7.4767 49.2373 7.4767Z"
        fill="#D1D1D1" />
      <path
        d="M51.0723 16.4249V8.1661H52.5158V8.87811H52.7255C52.8571 8.64868 53.0627 8.44695 53.3425 8.27289C53.6218 8.09095 54.0215 8 54.5414 8C55.0072 8 55.4378 8.11863 55.8333 8.356C56.2294 8.58537 56.5474 8.92553 56.788 9.37647C57.0287 9.82737 57.149 10.3732 57.149 11.0139V11.2038C57.149 11.8446 57.0287 12.3904 56.788 12.8413C56.5474 13.2923 56.2294 13.6364 55.8333 13.8737C55.4378 14.1031 55.0072 14.2178 54.5414 14.2178C54.1919 14.2178 53.8971 14.1743 53.6564 14.0873C53.4236 14.0082 53.2336 13.9053 53.0864 13.7787C52.9465 13.6443 52.8339 13.5098 52.7487 13.3753H52.5391V16.4249H51.0723ZM54.0989 12.9125C54.5569 12.9125 54.9334 12.7662 55.2282 12.4735C55.5308 12.1729 55.682 11.7378 55.682 11.1682V11.0496C55.682 10.48 55.5308 10.0488 55.2282 9.75616C54.9256 9.45558 54.5492 9.30526 54.0989 9.30526C53.6487 9.30526 53.2723 9.45558 52.9697 9.75616C52.6671 10.0488 52.5158 10.48 52.5158 11.0496V11.1682C52.5158 11.7378 52.6671 12.1729 52.9697 12.4735C53.2723 12.7662 53.6487 12.9125 54.0989 12.9125Z"
        fill="#D1D1D1" />
      <path
        d="M60.37 14.2178C59.6171 14.2178 59.0001 14.0517 58.5189 13.7194C58.0382 13.3872 57.747 12.9125 57.6458 12.2955L58.9965 11.9395C59.0507 12.2164 59.14 12.4339 59.264 12.5922C59.3961 12.7504 59.5552 12.8651 59.7416 12.9363C59.9352 12.9995 60.1448 13.0312 60.37 13.0312C60.7113 13.0312 60.9638 12.9718 61.1269 12.8532C61.2896 12.7266 61.3711 12.5724 61.3711 12.3904C61.3711 12.2085 61.2937 12.0701 61.1383 11.9751C60.9834 11.8723 60.735 11.7892 60.3932 11.7259L60.0674 11.6666C59.6636 11.5875 59.2949 11.4807 58.9614 11.3462C58.6278 11.2038 58.3599 11.01 58.158 10.7648C57.9566 10.5195 57.8554 10.2031 57.8554 9.81547C57.8554 9.2301 58.065 8.78316 58.4843 8.47463C58.903 8.15821 59.4545 8 60.1371 8C60.7815 8 61.3169 8.14637 61.7434 8.43905C62.1704 8.73174 62.4498 9.11542 62.582 9.59005L61.2199 10.0172C61.1579 9.71663 61.0298 9.503 60.8357 9.37647C60.6493 9.24989 60.4164 9.18658 60.1371 9.18658C59.8578 9.18658 59.6445 9.238 59.4968 9.34084C59.3497 9.43579 59.2758 9.57026 59.2758 9.74432C59.2758 9.93416 59.3533 10.0765 59.5087 10.1715C59.6636 10.2585 59.8732 10.3257 60.1371 10.3732L60.4629 10.4325C60.8977 10.5116 61.2896 10.6184 61.6391 10.7529C61.9959 10.8795 62.2753 11.0654 62.4771 11.3106C62.6868 11.5479 62.7916 11.8723 62.7916 12.2836C62.7916 12.9007 62.5701 13.3793 62.1276 13.7194C61.6933 14.0517 61.1073 14.2178 60.37 14.2178Z"
        fill="#D1D1D1" />
      <path
        d="M65.7528 14.1465C65.3031 14.1465 64.9071 14.0436 64.5658 13.838C64.2322 13.6244 63.972 13.3317 63.7856 12.9599C63.5997 12.5881 63.5062 12.1609 63.5062 11.6784V8.16602H64.9731V11.5597C64.9731 12.0027 65.078 12.335 65.2876 12.5564C65.5045 12.778 65.8112 12.8887 66.2072 12.8887C66.6569 12.8887 67.0065 12.7384 67.2549 12.4378C67.5032 12.1293 67.6271 11.7021 67.6271 11.1563V8.16602H69.0941V14.0516H67.6504V13.2803H67.4413C67.3478 13.4781 67.1733 13.6719 66.9172 13.8617C66.6611 14.0516 66.2728 14.1465 65.7528 14.1465Z"
        fill="#D1D1D1" />
      <path
        d="M70.2026 14.0508V8.16521H71.6458V8.806H71.8554C71.9561 8.60821 72.1234 8.43815 72.3558 8.29573C72.5886 8.14547 72.8953 8.07031 73.2759 8.07031C73.6869 8.07031 74.0168 8.15337 74.2652 8.31947C74.5136 8.47768 74.7036 8.68731 74.8358 8.94836H75.0449C75.1771 8.69526 75.3635 8.48563 75.6041 8.31947C75.8447 8.15337 76.186 8.07031 76.6285 8.07031C76.9853 8.07031 77.3075 8.14942 77.5946 8.30763C77.8894 8.45789 78.1223 8.69126 78.2932 9.00773C78.4713 9.31621 78.5606 9.70779 78.5606 10.1825V14.0508H77.0937V10.2893C77.0937 9.96489 77.0126 9.72363 76.8495 9.56542C76.6863 9.39931 76.4576 9.31621 76.1627 9.31621C75.8292 9.31621 75.569 9.427 75.3826 9.64847C75.2044 9.86205 75.1151 10.1706 75.1151 10.574V14.0508H73.6482V10.2893C73.6482 9.96489 73.5666 9.72363 73.4039 9.56542C73.2408 9.39931 73.012 9.31621 72.7167 9.31621C72.3831 9.31621 72.1234 9.427 71.937 9.64847C71.7584 9.86205 71.669 10.1706 71.669 10.574V14.0508H70.2026Z"
        fill="#D1D1D1" />
    </g>
    <defs>
      <clipPath id="clip0_43_1753">
        <rect width="79" height="20" fill="white" />
      </clipPath>
    </defs>
  </symbol>

  <symbol width="72" height="18" viewBox="0 0 72 18" id="partner-logo2">
    <g clip-path="url(#clip0_43_1846)">
      <path d="M21.6682 12.5061H26.7602V10.9724H23.478V5.19531H21.6682V12.5061Z" fill="#D1D1D1" />
      <path
        d="M29.777 11.4827C29.051 11.4827 28.6727 10.8488 28.6727 9.89789C28.6727 8.94698 29.051 8.30281 29.777 8.30281C30.5029 8.30281 30.8915 8.94698 30.8915 9.89789C30.8915 10.8488 30.5029 11.4827 29.777 11.4827ZM29.7872 12.6688C31.4743 12.6688 32.5786 11.4725 32.5786 9.89789C32.5786 8.32326 31.4743 7.12695 29.7872 7.12695C28.1103 7.12695 26.9856 8.32326 26.9856 9.89789C26.9856 11.4725 28.1103 12.6688 29.7872 12.6688Z"
        fill="#D1D1D1" />
      <path
        d="M35.4989 14.3155C36.276 14.3155 36.961 14.1417 37.4212 13.7327C37.8404 13.3543 38.1164 12.7818 38.1164 11.9944V7.27056H36.5214V7.83293H36.5009C36.1942 7.39326 35.7238 7.11719 35.0285 7.11719C33.73 7.11719 32.8302 8.20102 32.8302 9.73475C32.8302 11.3401 33.9243 12.2194 35.1001 12.2194C35.7341 12.2194 36.1328 11.9638 36.4396 11.6161H36.4805V12.1376C36.4805 12.7715 36.184 13.1396 35.4784 13.1396C34.9263 13.1396 34.6502 12.9045 34.5582 12.6284H32.9427C33.1063 13.7224 34.0572 14.3155 35.4989 14.3155ZM35.4887 10.9822C34.8649 10.9822 34.456 10.4709 34.456 9.68363C34.456 8.88609 34.8649 8.37484 35.4887 8.37484C36.184 8.37484 36.552 8.96789 36.552 9.6734C36.552 10.4096 36.2146 10.9822 35.4887 10.9822Z"
        fill="#D1D1D1" />
      <path
        d="M41.3961 11.4827C40.6702 11.4827 40.2918 10.8488 40.2918 9.89789C40.2918 8.94698 40.6702 8.30281 41.3961 8.30281C42.1221 8.30281 42.5106 8.94698 42.5106 9.89789C42.5106 10.8488 42.1221 11.4827 41.3961 11.4827ZM41.4063 12.6688C43.0934 12.6688 44.1977 11.4725 44.1977 9.89789C44.1977 8.32326 43.0934 7.12695 41.4063 7.12695C39.7295 7.12695 38.6047 8.32326 38.6047 9.89789C38.6047 11.4725 39.7295 12.6688 41.4063 12.6688Z"
        fill="#D1D1D1" />
      <path d="M44.6843 12.5061H46.351V7.27096H44.6843V12.5061ZM44.6843 6.54499H46.351V5.19531H44.6843V6.54499Z"
        fill="#D1D1D1" />
      <path
        d="M47.0743 14.2337H48.741V11.9638H48.7614C49.0886 12.4034 49.5692 12.6693 50.244 12.6693C51.6142 12.6693 52.5242 11.5854 52.5242 9.88812C52.5242 8.3135 51.6755 7.11719 50.2849 7.11719C49.5692 7.11719 49.058 7.43416 48.7001 7.9045H48.6694V7.27056H47.0743V14.2337ZM49.8146 11.381C49.0989 11.381 48.6899 10.7981 48.6899 9.94947C48.6899 9.10081 49.058 8.45664 49.7839 8.45664C50.4997 8.45664 50.8371 9.04969 50.8371 9.94947C50.8371 10.839 50.4485 11.381 49.8146 11.381Z"
        fill="#D1D1D1" />
      <path
        d="M55.2376 12.6693C56.6078 12.6693 57.62 12.0762 57.62 10.9311C57.62 9.5916 56.5362 9.35643 55.616 9.20306C54.9513 9.08036 54.3583 9.02924 54.3583 8.66114C54.3583 8.33395 54.6753 8.18057 55.0843 8.18057C55.5444 8.18057 55.8614 8.32372 55.9227 8.79406H57.4564C57.3746 7.76135 56.5771 7.11719 55.0945 7.11719C53.8573 7.11719 52.8348 7.68978 52.8348 8.79406C52.8348 10.021 53.8062 10.2664 54.7162 10.4198C55.4115 10.5425 56.0454 10.5936 56.0454 11.064C56.0454 11.4014 55.7284 11.5854 55.2274 11.5854C54.6753 11.5854 54.3276 11.3298 54.2663 10.8084H52.6917C52.7428 11.9638 53.7039 12.6693 55.2376 12.6693Z"
        fill="#D1D1D1" />
      <path
        d="M59.8839 12.658C60.6099 12.658 61.07 12.3717 61.4483 11.8605H61.479V12.5047H63.0741V7.26953H61.4074V10.1938C61.4074 10.8176 61.0598 11.247 60.4872 11.247C59.9555 11.247 59.6999 10.93 59.6999 10.3574V7.26953H58.0435V10.7051C58.0435 11.8707 58.6774 12.658 59.8839 12.658Z"
        fill="#D1D1D1" />
      <path
        d="M63.7988 12.5057H65.4655V9.57115C65.4655 8.94744 65.7722 8.50777 66.2937 8.50777C66.7947 8.50777 67.0299 8.83496 67.0299 9.39733V12.5057H68.6965V9.57115C68.6965 8.94744 68.9931 8.50777 69.5247 8.50777C70.0258 8.50777 70.2609 8.83496 70.2609 9.39733V12.5057H71.9276V9.10081C71.9276 7.92495 71.3345 7.11719 70.1485 7.11719C69.4736 7.11719 68.9113 7.40348 68.5023 8.03742H68.4818C68.216 7.47506 67.6945 7.11719 67.0094 7.11719C66.2528 7.11719 65.7518 7.47506 65.4246 8.01697H65.3939V7.27056H63.7988V12.5057Z"
        fill="#D1D1D1" />
      <path fill-rule="evenodd" clip-rule="evenodd"
        d="M8.8122 0.410156C13.6101 0.410156 17.4996 4.29964 17.4996 9.09756C17.4996 13.8955 13.6101 17.785 8.8122 17.785C4.01424 17.785 0.124756 13.8955 0.124756 9.09756C0.124756 4.29964 4.01424 0.410156 8.8122 0.410156ZM17.1662 9.09756C17.1662 4.48381 13.4259 0.743581 8.8122 0.743581C8.44001 0.743581 8.07358 0.767916 7.71426 0.815082C7.94641 0.794786 8.18132 0.784425 8.41871 0.784425C12.8274 0.784425 16.4014 4.35838 16.4014 8.76709C16.4014 13.1757 12.8274 16.7497 8.41871 16.7497C4.24487 16.7497 0.819191 13.5464 0.46608 9.46408C0.657902 13.9078 4.32119 17.4516 8.8122 17.4516C13.4259 17.4516 17.1662 13.7114 17.1662 9.09756ZM16.0679 8.76709C16.0679 4.54252 12.6433 1.11785 8.41871 1.11785C8.07571 1.11785 7.73795 1.14043 7.40688 1.18418C7.61073 1.16703 7.81698 1.15828 8.02527 1.15828C12.0447 1.15828 15.3031 4.41671 15.3031 8.43614C15.3031 12.4556 12.0447 15.714 8.02527 15.714C4.22477 15.714 1.10465 12.8009 0.776016 9.0858C0.943103 13.1625 4.30095 16.4163 8.41871 16.4163C12.6433 16.4163 16.0679 12.9916 16.0679 8.76709ZM8.02527 1.49171C11.8606 1.49171 14.9697 4.60084 14.9697 8.43614C14.9697 12.2714 11.8606 15.3806 8.02527 15.3806C4.27884 15.3806 1.22528 12.4138 1.08582 8.70148C1.38692 12.0522 4.20271 14.6783 7.63187 14.6783C11.2618 14.6783 14.2045 11.7356 14.2045 8.10562C14.2045 4.47563 11.2618 1.53296 7.63187 1.53296C7.44407 1.53296 7.2581 1.54084 7.07431 1.55628C7.38523 1.5137 7.70267 1.49171 8.02527 1.49171ZM13.8711 8.10562C13.8711 4.65981 11.0777 1.86639 7.63187 1.86639C7.34071 1.86639 7.0542 1.88633 6.7737 1.92492C6.92686 1.91293 7.08168 1.90683 7.23795 1.90683C10.4787 1.90683 13.1059 4.53395 13.1059 7.77472C13.1059 11.0154 10.4787 13.6426 7.23795 13.6426C4.1877 13.6426 1.68103 11.3152 1.3969 8.33939C1.51982 11.6769 4.26427 14.3449 7.63187 14.3449C11.0777 14.3449 13.8711 11.5515 13.8711 8.10562ZM7.23795 2.24025C10.2945 2.24025 12.7724 4.71813 12.7724 7.77472C12.7724 10.8313 10.2945 13.3092 7.23795 13.3092C4.24158 13.3092 1.80136 10.928 1.70638 7.95468C1.9629 10.5664 4.16542 12.6069 6.84451 12.6069C9.69605 12.6069 12.0076 10.2953 12.0076 7.44378C12.0076 4.59228 9.69605 2.28068 6.84451 2.28068C6.71376 2.28068 6.58412 2.28554 6.45579 2.29509C6.71133 2.25895 6.97245 2.24025 7.23795 2.24025ZM11.6742 7.44378C11.6742 4.77641 9.51187 2.61411 6.84451 2.61411C6.60103 2.61411 6.36177 2.63212 6.12796 2.6669C6.23468 2.65925 6.34243 2.65536 6.45111 2.65536C8.91313 2.65536 10.909 4.65124 10.909 7.11326C10.909 9.57532 8.91313 11.5712 6.45111 11.5712C4.14403 11.5712 2.24629 9.81867 2.01652 7.57227C2.08464 10.1802 4.22013 12.2735 6.84451 12.2735C9.51187 12.2735 11.6742 10.1111 11.6742 7.44378ZM6.45111 2.98879C8.72899 2.98879 10.5756 4.83537 10.5756 7.11326C10.5756 9.39118 8.72899 11.2378 6.45111 11.2378C4.20219 11.2378 2.37368 9.43788 2.3275 7.20004C2.53524 9.07626 4.12604 10.5355 6.05766 10.5355C8.13046 10.5355 9.81078 8.85515 9.81078 6.78236C9.81078 4.70957 8.13046 3.02922 6.05766 3.02922C5.97838 3.02922 5.89969 3.03168 5.82164 3.03652C6.02686 3.00509 6.23707 2.98879 6.45111 2.98879ZM9.47737 6.78236C9.47737 4.8937 7.94632 3.36265 6.05766 3.36265C5.86799 3.36265 5.68194 3.37809 5.50067 3.40778C5.55469 3.40493 5.60905 3.40349 5.66379 3.40349C7.34732 3.40349 8.71212 4.76827 8.71212 6.45184C8.71212 8.1354 7.34732 9.50021 5.66379 9.50021C4.10707 9.50021 2.8229 8.3333 2.63823 6.82649C2.66187 8.69483 4.18375 10.2021 6.05766 10.2021C7.94632 10.2021 9.47737 8.67101 9.47737 6.78236ZM5.66379 3.73691C7.16318 3.73691 8.37871 4.95241 8.37871 6.45184C8.37871 7.95127 7.16318 9.16675 5.66379 9.16675C4.16437 9.16675 2.94885 7.95127 2.94885 6.45184C2.94885 6.44826 2.94886 6.44464 2.94887 6.44106C3.10498 7.58369 4.08485 8.46409 5.27035 8.46409C6.56443 8.46409 7.6135 7.41502 7.6135 6.12094C7.6135 4.82681 6.56443 3.77777 5.27035 3.77777C5.24108 3.77777 5.21194 3.7783 5.18293 3.77936C5.33898 3.75147 5.49969 3.73691 5.66379 3.73691ZM7.28005 6.12094C7.28005 5.01099 6.3803 4.11119 5.27035 4.11119C4.1604 4.11119 3.26061 5.01099 3.26061 6.12094C3.26061 7.23084 4.1604 8.13063 5.27035 8.13063C6.3803 8.13063 7.28005 7.23084 7.28005 6.12094Z"
        fill="#D1D1D1" />
    </g>
    <defs>
      <clipPath id="clip0_43_1846">
        <rect width="72" height="17.8935" fill="white" />
      </clipPath>
    </defs>
  </symbol>

  <symbol width="72" height="16" viewBox="0 0 72 16" id="partner-logo3">
    <path
      d="M11.5297 6.87586C11.3348 7.07196 11.1856 7.30863 11.0926 7.56897C10.9996 7.82935 10.9652 8.10701 10.9918 8.38221L10.9825 8.37295C11.0099 8.6969 10.9662 9.02285 10.8545 9.32818C10.7429 9.63346 10.566 9.91071 10.3361 10.1406C10.1062 10.3704 9.82898 10.5474 9.52365 10.659C9.21837 10.7707 8.89236 10.8144 8.56847 10.787L8.57772 10.7963C8.19026 10.7602 7.8011 10.8445 7.46327 11.0377C7.12548 11.2309 6.85548 11.5236 6.69014 11.8759C6.5248 12.2282 6.47208 12.6229 6.53925 13.0062C6.60647 13.3895 6.79022 13.7428 7.06552 14.0178C7.34081 14.2928 7.69423 14.4763 8.07758 14.5431C8.46098 14.6099 8.85559 14.5569 9.20772 14.3912C9.55985 14.2255 9.85228 13.9553 10.0452 13.6173C10.2381 13.2793 10.3221 12.8901 10.2857 12.5027L10.2954 12.5119C10.2681 12.188 10.3117 11.862 10.4234 11.5567C10.535 11.2514 10.712 10.9742 10.9418 10.7443C11.1717 10.5144 11.449 10.3375 11.7543 10.2259C12.0596 10.1142 12.3855 10.0705 12.7095 10.0979L12.6997 10.0886C13.0162 10.117 13.3348 10.0652 13.626 9.93771C13.917 9.81027 14.1713 9.6114 14.3651 9.35955C14.5589 9.10771 14.686 8.81097 14.7345 8.49694C14.7831 8.18287 14.7517 7.86165 14.6431 7.56295C14.5344 7.2643 14.3522 6.9979 14.1132 6.78843C13.8742 6.57897 13.5862 6.43322 13.2759 6.36471C12.9656 6.29621 12.6429 6.30711 12.338 6.39645C12.033 6.48583 11.7555 6.65071 11.5313 6.87586H11.5297Z"
      fill="#D1D1D1" />
    <path
      d="M7.73586 9.58368L7.72609 9.57442C8.00139 9.60215 8.27941 9.56836 8.5401 9.47548C8.80074 9.3826 9.03752 9.23299 9.23326 9.03741C9.42894 8.84182 9.57881 8.60515 9.67184 8.34456C9.76493 8.08397 9.79892 7.806 9.77141 7.53065L9.78118 7.53991C9.75382 7.21596 9.79753 6.89001 9.90913 6.58468C10.0208 6.2794 10.1977 6.00215 10.4276 5.77226C10.6575 5.54243 10.9347 5.36546 11.24 5.25386C11.5453 5.14219 11.8713 5.09851 12.1952 5.12585L12.1855 5.1166C12.573 5.15301 12.9622 5.06895 13.3002 4.87596C13.6383 4.68297 13.9085 4.39041 14.0741 4.03819C14.2397 3.68598 14.2926 3.29125 14.2256 2.90784C14.1587 2.52444 13.9751 2.17103 13.6998 1.89582C13.4246 1.62061 13.0712 1.43699 12.6878 1.37001C12.3044 1.30304 11.9097 1.35596 11.5575 1.52158C11.2052 1.68718 10.9127 1.95741 10.7197 2.29541C10.5267 2.63339 10.4427 3.02269 10.4791 3.4102L10.4698 3.40043C10.4972 3.72437 10.4536 4.05039 10.342 4.35574C10.2304 4.66108 10.0534 4.93838 9.82361 5.16828C9.59372 5.39812 9.31642 5.57508 9.01109 5.68668C8.7057 5.79828 8.3797 5.84189 8.05575 5.81448L8.06501 5.82425C7.78971 5.79653 7.51164 5.83032 7.251 5.9232C6.99036 6.01603 6.75358 6.16569 6.55784 6.36127C6.3621 6.55685 6.21229 6.79353 6.11921 7.05412C6.02617 7.3147 5.99218 7.59268 6.01969 7.86803L6.01044 7.85877C6.03769 8.18266 5.99393 8.50862 5.88228 8.8139C5.77057 9.11913 5.59366 9.39638 5.36382 9.62621C5.13397 9.85605 4.85675 10.033 4.55149 10.1447C4.24623 10.2563 3.92028 10.3001 3.59638 10.2728L3.60564 10.2821C3.21813 10.2457 2.82883 10.3297 2.49084 10.5227C2.15285 10.7157 1.88262 11.0083 1.71701 11.3605C1.5514 11.7127 1.49847 12.1074 1.56545 12.4908C1.63242 12.8742 1.81604 13.2277 2.09125 13.5028C2.36647 13.7781 2.71988 13.9617 3.10328 14.0287C3.48669 14.0956 3.88142 14.0427 4.23363 13.8771C4.58585 13.7115 4.87841 13.4413 5.0714 13.1033C5.26441 12.7653 5.34845 12.376 5.31204 11.9885L5.32181 11.9977C5.29445 11.6738 5.33816 11.3478 5.44981 11.0425C5.56141 10.7372 5.73838 10.46 5.96821 10.2301C6.1981 10.0003 6.47535 9.82329 6.78063 9.71169C7.08596 9.60004 7.41191 9.55632 7.73586 9.58368Z"
      fill="#D1D1D1" />
    <path
      d="M4.28909 8.55164C4.48402 8.35559 4.63325 8.11892 4.72616 7.85853C4.81906 7.59815 4.85333 7.32044 4.82652 7.04529L4.83629 7.05455C4.80893 6.73055 4.85262 6.40444 4.96433 6.09906C5.07604 5.79368 5.25307 5.51637 5.48306 5.28649C5.71305 5.05661 5.9904 4.8797 6.29584 4.76813C6.60127 4.65655 6.92738 4.61299 7.25138 4.64049L7.24161 4.63124C7.62897 4.66753 8.01813 4.58345 8.35596 4.39047C8.6938 4.19749 8.96385 3.905 9.1294 3.5529C9.29489 3.20079 9.34776 2.8062 9.2808 2.42294C9.21384 2.03968 9.03024 1.6864 8.75515 1.41129C8.48006 1.13618 8.12675 0.952622 7.7435 0.885651C7.36025 0.818676 6.96564 0.871555 6.61356 1.03706C6.26143 1.20257 5.96896 1.47266 5.776 1.81049C5.58299 2.14833 5.4989 2.53747 5.53521 2.92484L5.52595 2.91558C5.55331 3.2395 5.5096 3.56549 5.39795 3.87079C5.28629 4.17609 5.10939 4.45335 4.87953 4.68321C4.64967 4.91308 4.3724 5.09001 4.0671 5.20163C3.7618 5.31328 3.43582 5.357 3.11189 5.32964L3.12115 5.33889C2.80464 5.3105 2.48609 5.3625 2.19502 5.48999C1.90394 5.61748 1.64975 5.81641 1.45602 6.0683C1.26228 6.32015 1.13526 6.61689 1.08672 6.93092C1.03819 7.24499 1.06971 7.56621 1.17837 7.86481C1.28702 8.16345 1.4693 8.4298 1.7083 8.63922C1.9473 8.84869 2.2353 8.99438 2.54561 9.06289C2.85592 9.13134 3.17849 9.12038 3.48345 9.03105C3.7884 8.94167 4.06586 8.77679 4.29012 8.55164H4.28909Z"
      fill="#D1D1D1" />
    <path d="M20.2202 3.42188H21.7476V10.8548H20.2202V3.42188Z" fill="#D1D1D1" />
    <path
      d="M22.6126 8.31081C22.6105 7.77668 22.767 7.25385 23.0622 6.80869C23.3574 6.36352 23.778 6.01597 24.2709 5.8101C24.7638 5.60418 25.3067 5.5492 25.8309 5.65211C26.355 5.75502 26.8369 6.01113 27.2153 6.38811C27.5938 6.76503 27.8519 7.24583 27.9569 7.76958C28.0619 8.29333 28.0091 8.83647 27.8052 9.33018C27.6012 9.82384 27.2554 10.246 26.8114 10.5429C26.3674 10.8399 25.8453 10.9985 25.3111 10.9985C24.9565 11.0025 24.6047 10.9358 24.2762 10.8023C23.9477 10.6688 23.6491 10.4712 23.3978 10.221C23.1466 9.97072 22.9477 9.6729 22.8129 9.34494C22.6781 9.01698 22.61 8.66542 22.6126 8.31081ZM26.4821 8.31081C26.4757 8.08057 26.4016 7.85732 26.2691 7.66893C26.1365 7.4806 25.9514 7.33547 25.7368 7.2518C25.5222 7.16807 25.2877 7.14945 25.0626 7.19831C24.8375 7.24717 24.6318 7.36124 24.4712 7.52637C24.3106 7.69146 24.2022 7.90026 24.1597 8.12665C24.1171 8.35299 24.1422 8.58688 24.2318 8.79908C24.3214 9.01127 24.4716 9.1923 24.6635 9.31959C24.8555 9.44687 25.0808 9.51476 25.3111 9.51476C25.4688 9.51897 25.6257 9.49043 25.7719 9.43098C25.9181 9.37153 26.0504 9.28245 26.1604 9.16936C26.2704 9.05622 26.3558 8.92153 26.4111 8.77377C26.4665 8.62602 26.4907 8.46839 26.4821 8.31081Z"
      fill="#D1D1D1" />
    <path
      d="M34.0971 5.7647V10.599C34.0971 12.3095 32.763 13.0326 31.4089 13.0326C30.9322 13.0683 30.4548 12.972 30.0291 12.7543C29.6035 12.5365 29.246 12.2058 28.9959 11.7983L30.2991 11.0449C30.4042 11.2573 30.5717 11.4325 30.7791 11.5471C30.9866 11.6617 31.2241 11.7103 31.4598 11.6862C31.6105 11.7071 31.764 11.6938 31.9088 11.6474C32.0537 11.6009 32.1863 11.5225 32.2967 11.4179C32.4072 11.3133 32.4927 11.1853 32.547 11.0431C32.6013 10.901 32.6229 10.7485 32.6103 10.5969V10.1315C32.4314 10.3503 32.2038 10.5242 31.9456 10.6392C31.6873 10.7541 31.4058 10.8069 31.1235 10.7934C30.4517 10.7722 29.8146 10.4905 29.3469 10.0078C28.8792 9.5251 28.6177 8.87937 28.6177 8.2073C28.6177 7.53523 28.8792 6.88949 29.3469 6.40684C29.8146 5.92413 30.4517 5.6424 31.1235 5.62121C31.4058 5.60769 31.6873 5.6605 31.9456 5.77545C32.2038 5.89039 32.4314 6.06427 32.6103 6.2831V5.76367L34.0971 5.7647ZM32.6108 8.20807C32.6211 7.96193 32.5574 7.71832 32.4281 7.50864C32.2987 7.29892 32.1096 7.13275 31.885 7.03149C31.6604 6.93017 31.4107 6.89844 31.1679 6.9403C30.9251 6.98217 30.7004 7.09572 30.5226 7.26641C30.345 7.43705 30.2224 7.65696 30.1707 7.89785C30.1191 8.13874 30.1407 8.38961 30.2328 8.61811C30.325 8.84661 30.4834 9.04235 30.6876 9.18007C30.8919 9.3178 31.1327 9.39124 31.3791 9.39093C31.5396 9.40214 31.7006 9.37961 31.8519 9.32479C32.0031 9.26997 32.1412 9.18403 32.2572 9.07264C32.3732 8.96119 32.4647 8.8267 32.5256 8.67777C32.5865 8.52888 32.6155 8.36889 32.6108 8.20807Z"
      fill="#D1D1D1" />
    <path
      d="M34.9622 8.31081C34.9601 7.77668 35.1165 7.25385 35.4118 6.80869C35.707 6.36352 36.1277 6.01597 36.6205 5.8101C37.1134 5.60418 37.6563 5.5492 38.1805 5.65211C38.7046 5.75502 39.1865 6.01113 39.5649 6.38811C39.9434 6.76503 40.2015 7.24583 40.3065 7.76958C40.4115 8.29333 40.3587 8.83647 40.1548 9.33018C39.9509 9.82384 39.605 10.246 39.161 10.5429C38.717 10.8399 38.1949 10.9985 37.6607 10.9985C37.3061 11.0025 36.9543 10.9358 36.6258 10.8023C36.2973 10.6688 35.9987 10.4712 35.7474 10.221C35.4962 9.97072 35.2973 9.6729 35.1625 9.34494C35.0277 9.01698 34.9596 8.66542 34.9622 8.31081ZM38.8317 8.31081C38.8253 8.08057 38.7512 7.85732 38.6187 7.66893C38.4861 7.4806 38.301 7.33547 38.0864 7.2518C37.8718 7.16807 37.6373 7.14945 37.4122 7.19831C37.1871 7.24717 36.9814 7.36124 36.8208 7.52637C36.6602 7.69146 36.5518 7.90026 36.5093 8.12665C36.4667 8.35299 36.4918 8.58688 36.5814 8.79908C36.671 9.01127 36.8212 9.1923 37.0132 9.31959C37.2051 9.44687 37.4303 9.51476 37.6607 9.51476C37.8184 9.51897 37.9753 9.49043 38.1215 9.43098C38.2677 9.37153 38.4 9.28245 38.51 9.16936C38.62 9.05622 38.7054 8.92153 38.7607 8.77377C38.8161 8.62602 38.8403 8.46839 38.8317 8.31081Z"
      fill="#D1D1D1" />
    <path
      d="M41.0714 4.40083C41.0714 4.21957 41.1252 4.04239 41.2259 3.89168C41.3265 3.74097 41.4697 3.6235 41.6372 3.55414C41.8046 3.48477 41.9889 3.46662 42.1667 3.50199C42.3444 3.53735 42.5078 3.62463 42.6359 3.7528C42.7641 3.88097 42.8514 4.04426 42.8867 4.22204C42.9221 4.39982 42.9039 4.58408 42.8346 4.75155C42.7652 4.91901 42.6478 5.06214 42.497 5.16285C42.3463 5.26355 42.1692 5.31729 41.9879 5.31729C41.7456 5.31487 41.5139 5.21757 41.3425 5.0462C41.1712 4.87485 41.0738 4.64314 41.0714 4.40083ZM41.2257 5.76523H42.7536V10.8567H41.2236L41.2257 5.76523Z"
      fill="#D1D1D1" />
    <path
      d="M49.3488 8.31015C49.3664 8.64664 49.3174 8.9833 49.2044 9.30076C49.0916 9.61823 48.917 9.91024 48.6908 10.16C48.4647 10.4098 48.1913 10.6124 47.8866 10.7562C47.5819 10.8999 47.2517 10.9821 46.9152 10.9978C46.6321 11.0132 46.3492 10.9655 46.0868 10.8581C45.8245 10.7506 45.5894 10.5861 45.3985 10.3765V12.8919H43.8711V5.76443H45.3985V6.24272C45.5895 6.0333 45.8247 5.86894 46.0869 5.7616C46.3493 5.65422 46.6321 5.60655 46.9152 5.62198C47.2518 5.63766 47.582 5.71974 47.8868 5.86354C48.1917 6.00733 48.465 6.20996 48.6912 6.4598C48.9174 6.70964 49.0919 7.00175 49.2048 7.31932C49.3176 7.63684 49.3665 7.9736 49.3488 8.31015ZM47.8213 8.31015C47.8154 8.07188 47.7392 7.84066 47.6025 7.64538C47.4657 7.45016 47.2745 7.29958 47.0526 7.21256C46.8307 7.12549 46.5881 7.10579 46.355 7.15599C46.122 7.20613 45.909 7.3239 45.7426 7.49454C45.5762 7.66523 45.4638 7.88113 45.4195 8.11539C45.3752 8.34959 45.401 8.59162 45.4936 8.81127C45.5862 9.03092 45.7416 9.21832 45.9402 9.35014C46.1388 9.4819 46.3718 9.5522 46.6102 9.55215C46.7738 9.55945 46.9372 9.53204 47.0895 9.47176C47.2418 9.41154 47.3797 9.31974 47.494 9.20248C47.6084 9.08518 47.6966 8.94508 47.753 8.79131C47.8094 8.63754 47.8327 8.47354 47.8213 8.31015Z"
      fill="#D1D1D1" />
    <path
      d="M54.0622 9.32815C54.0622 10.4992 53.0445 10.998 51.9449 10.998C51.5006 11.0383 51.0545 10.9443 50.6643 10.7283C50.274 10.5123 49.9575 10.1842 49.7556 9.78638L51.0789 9.03295C51.1324 9.21681 51.2474 9.3768 51.4046 9.48609C51.5618 9.59543 51.7521 9.64752 51.9429 9.63364C52.309 9.63364 52.4926 9.52152 52.4926 9.31838C52.4926 8.75781 49.9876 9.05352 49.9876 7.29209C49.9876 6.18175 50.9246 5.62221 51.9835 5.62221C52.3816 5.60961 52.7755 5.70403 53.1247 5.8956C53.4739 6.08723 53.7655 6.36895 53.9686 6.71147L52.6654 7.41398C52.6084 7.28063 52.5132 7.16702 52.3918 7.08736C52.2705 7.00769 52.1285 6.96552 51.9835 6.96604C51.7186 6.96604 51.5556 7.06889 51.5556 7.25095C51.5577 7.83158 54.0622 7.44432 54.0622 9.32815Z"
      fill="#D1D1D1" />
    <path
      d="M59.6417 5.76367V10.8551H58.1143V10.3763C57.9379 10.5876 57.7142 10.754 57.4611 10.862C57.2081 10.97 56.9335 11.0165 56.6588 10.9976C55.6303 10.9976 54.756 10.2647 54.756 8.88899V5.76367H56.2834V8.66527C56.2706 8.78654 56.2844 8.90915 56.324 9.0245C56.3631 9.13991 56.4274 9.24533 56.5118 9.33343C56.5961 9.42153 56.6984 9.49019 56.8121 9.53467C56.9252 9.57916 57.0471 9.59839 57.169 9.59099C57.7291 9.59099 58.1158 9.26544 58.1158 8.54236V5.76521L59.6417 5.76367Z"
      fill="#D1D1D1" />
    <path
      d="M68.4001 7.7303V10.8561H66.8726V7.86248C66.8726 7.35333 66.6283 7.02779 66.1398 7.02779C65.6306 7.02779 65.3452 7.38419 65.3452 7.98488V10.8561H63.8183V7.86248C63.8183 7.35333 63.574 7.02779 63.0849 7.02779C62.5758 7.02779 62.2909 7.38419 62.2909 7.98488V10.8561H60.7634V5.7647H62.2909V6.2327C62.4493 6.02509 62.657 5.86041 62.8951 5.7538C63.1338 5.64714 63.395 5.60193 63.6553 5.62225C63.9165 5.60944 64.1767 5.66462 64.4107 5.78234C64.6442 5.90001 64.8433 6.07631 64.9888 6.2939C65.158 6.06623 65.3822 5.8852 65.6404 5.76774C65.8986 5.65028 66.1825 5.60024 66.4653 5.62225C67.6343 5.62276 68.4001 6.45745 68.4001 7.7303Z"
      fill="#D1D1D1" />
    <path
      d="M69.6918 5.73377C70.3177 5.73377 70.8253 5.22627 70.8253 4.60028C70.8253 3.97427 70.3177 3.4668 69.6918 3.4668C69.0659 3.4668 68.5583 3.97427 68.5583 4.60028C68.5583 5.22627 69.0659 5.73377 69.6918 5.73377Z"
      fill="#D1D1D1" />
  </symbol>

  <symbol width="20" height="20" viewBox="0 0 20 20" id="location-icon">
    <path fill-rule="evenodd" clip-rule="evenodd"
      d="M10.2079 1.66602C13.9988 1.66602 17.0829 4.77352 17.0829 8.59352C17.0829 13.2893 11.7029 17.916 10.2079 17.916C8.71295 17.916 3.33295 13.2893 3.33295 8.59352C3.33295 4.77352 6.41711 1.66602 10.2079 1.66602ZM10.2079 2.91602C7.10628 2.91602 4.58295 5.46352 4.58295 8.59352C4.58295 12.576 9.26961 16.456 10.2079 16.6627C11.1463 16.4552 15.8329 12.5752 15.8329 8.59352C15.8329 5.46352 13.3096 2.91602 10.2079 2.91602ZM10.2088 5.83268C11.7021 5.83268 12.9171 7.04768 12.9171 8.54185C12.9171 10.0352 11.7021 11.2493 10.2088 11.2493C8.71545 11.2493 7.50045 10.0352 7.50045 8.54185C7.50045 7.04768 8.71545 5.83268 10.2088 5.83268ZM10.2088 7.08268C9.40461 7.08268 8.75045 7.73685 8.75045 8.54185C8.75045 9.34602 9.40461 9.99935 10.2088 9.99935C11.0129 9.99935 11.6671 9.34602 11.6671 8.54185C11.6671 7.73685 11.0129 7.08268 10.2088 7.08268Z"
      fill="#B0B0B2" />
  </symbol>

  <symbol width="20" height="20" viewBox="0 0 20 20" id="message-icon">
    <path fill-rule="evenodd" clip-rule="evenodd"
      d="M13.8824 1.66602C16.6574 1.66602 18.7499 3.93018 18.7499 6.93268V12.656C18.7499 14.1927 18.2066 15.581 17.2191 16.566C16.3333 17.4485 15.1841 17.916 13.8958 17.916H5.68492C4.39909 17.916 3.25075 17.4493 2.36409 16.566C1.37659 15.581 0.833252 14.1927 0.833252 12.656V6.93268C0.833252 3.93018 2.92575 1.66602 5.70075 1.66602H13.8824ZM13.8824 2.91602H5.70075C3.60492 2.91602 2.08325 4.60518 2.08325 6.93268V12.656C2.08325 13.8585 2.49659 14.9327 3.24659 15.6802C3.89325 16.326 4.73742 16.666 5.68742 16.666H13.8824C13.8841 16.6643 13.8908 16.666 13.8958 16.666C14.8466 16.666 15.6899 16.326 16.3366 15.6802C17.0874 14.9327 17.4999 13.8585 17.4999 12.656V6.93268C17.4999 4.60518 15.9783 2.91602 13.8824 2.91602ZM15.1958 6.77335C15.4133 7.04085 15.3724 7.43418 15.1049 7.65252L11.4016 10.6625C10.9333 11.0342 10.3733 11.22 9.81409 11.22C9.25659 11.22 8.70075 11.0358 8.23575 10.6675L4.49825 7.65418C4.22909 7.43752 4.18742 7.04335 4.40325 6.77502C4.62075 6.50752 5.01409 6.46502 5.28242 6.68085L9.01658 9.69085C9.48575 10.0625 10.1466 10.0625 10.6191 9.68752L14.3158 6.68252C14.5841 6.46335 14.9774 6.50502 15.1958 6.77335Z"
      fill="#B0B0B2" />
  </symbol>

  <symbol width="20" height="20" viewBox="0 0 20 20" id="phone-icon">
    <path fill-rule="evenodd" clip-rule="evenodd"
      d="M5.5479 1.66647C6.47874 1.67897 7.14207 2.37647 7.98124 3.25897C8.18874 3.47647 8.4129 3.71397 8.66374 3.96397C9.87957 5.18063 9.53374 6.17313 9.25457 6.9698C8.95124 7.83897 8.68874 8.58897 10.2604 10.1606C11.8321 11.7323 12.5812 11.4698 13.4496 11.164C14.2471 10.8856 15.2371 10.5373 16.4554 11.754C16.7029 12.0015 16.9362 12.2231 17.1529 12.429C18.0387 13.2723 18.7387 13.9381 18.7505 14.8715C18.7596 15.6665 18.2762 16.4781 17.0829 17.6715L16.5546 17.3131L17.0021 17.749C16.7379 18.0198 16.0354 18.7415 14.6596 18.7498H14.6346C12.5579 18.7498 9.8504 17.0965 6.58707 13.834C3.3104 10.5581 1.65457 7.8423 1.667 5.76147C1.67457 4.38647 2.3954 3.6823 2.66624 3.41813L2.68935 3.39289L2.7454 3.33647C3.94124 2.14063 4.7629 1.64897 5.5479 1.66647ZM5.53207 2.91647H5.5254C5.15119 2.91647 4.58288 3.29147 3.79026 4.06138L3.6311 4.21768L3.6329 4.2173C3.6329 4.2173 3.6193 4.2329 3.59612 4.25654L3.5404 4.3123C3.33874 4.50813 2.92124 4.91563 2.91703 5.76813C2.9104 6.96063 3.69457 9.1748 7.4704 12.9498C11.2279 16.7065 13.4387 17.4998 14.6346 17.4998H14.6521C15.5046 17.4948 15.9112 17.0773 16.1071 16.8765C16.1662 16.8156 16.2146 16.7698 16.2487 16.7423C17.0796 15.9065 17.5046 15.2856 17.5004 14.8865C17.4954 14.4798 16.9896 13.9998 16.2904 13.334C16.0679 13.1231 15.8262 12.8923 15.5712 12.6373C14.9096 11.9781 14.5837 12.0906 13.8629 12.344C12.8671 12.6931 11.5029 13.1715 9.37707 11.044C7.2504 8.91813 7.72707 7.55397 8.07457 6.5573C8.32624 5.8373 8.44124 5.5098 7.7804 4.84813C7.52207 4.5898 7.28957 4.3448 7.0754 4.1198C6.41374 3.4248 5.93624 2.9223 5.53207 2.91647ZM12.7055 4.63105C14.4397 4.96772 15.7788 6.30605 16.1163 8.04105C16.1822 8.38105 15.9613 8.70855 15.623 8.77438C15.5822 8.78188 15.5422 8.78605 15.5022 8.78605C15.2088 8.78605 14.948 8.57938 14.8897 8.28105C14.6497 7.04772 13.6988 6.09688 12.4672 5.85772C12.128 5.79188 11.9072 5.46438 11.973 5.12522C12.0388 4.78605 12.3722 4.56438 12.7055 4.63105ZM12.6556 1.67122C16.0539 2.04872 18.6931 4.68455 19.0739 8.08205C19.1122 8.42538 18.8656 8.73455 18.5231 8.77288C18.4997 8.77538 18.4756 8.77705 18.4522 8.77705C18.1381 8.77705 17.8681 8.54122 17.8322 8.22205C17.5164 5.40872 15.3314 3.22538 12.5172 2.91288C12.1747 2.87455 11.9272 2.56622 11.9656 2.22288C12.0031 1.88038 12.3089 1.62788 12.6556 1.67122Z"
      fill="#B0B0B2" />
  </symbol>

  <symbol width="32" height="32" viewBox="0 0 32 32" id="burger-icon">
    <rect x="0.5" y="0.5" width="31" height="31" stroke="url(#paint0_linear_124_8220)" />
    <path
      d="M10.6667 12H21.3334V13.3333H10.6667V12ZM13.3334 15.3333H21.3334V16.6667H13.3334V15.3333ZM16.6667 18.6667H21.3334V20H16.6667V18.6667Z"
      fill="white" />
    <defs>
      <linearGradient id="paint0_linear_124_8220" x1="0" y1="16" x2="32" y2="16" gradientUnits="userSpaceOnUse">
        <stop stop-color="#0CBAF1" />
        <stop offset="1" stop-color="#E95CE9" />
      </linearGradient>
    </defs>
  </symbol>

  <symbol width="32" height="32" viewBox="0 0 32 32" id="cross-icon">
    <rect x="0.5" y="0.5" width="31" height="31" stroke="url(#paint0_linear_124_8220)" />
    <path d="M12 12L20 20M20 12L12 20" stroke="white" stroke-width="2" stroke-linecap="round" />
    <defs>
      <linearGradient id="paint0_linear_124_8220" x1="0" y1="16" x2="32" y2="16" gradientUnits="userSpaceOnUse">
        <stop stop-color="#0CBAF1" />
        <stop offset="1" stop-color="#E95CE9" />
      </linearGradient>
    </defs>
  </symbol>
</svg>